<svg viewBox="0 0 723 104" fill="none" xmlns="http://www.w3.org/2000/svg">
<path d="M714.53 88.47H704.87V85.04C702.13 89.07 696.41 89.59 692.91 89.59C687.9 89.59 683.27 87.65 679.87 84.26C675.76 80.16 673.38 74.05 673.34 68.15C673.31 62.46 674.97 57.03 678.4 52.91C681.47 49.22 685.94 46.54 691.97 46.54C697.01 46.54 701.66 47.5 704.36 50.51V24.34H714.53V88.48V88.47ZM683.7 67.9C683.7 74.74 687.24 81.12 693.06 81.12C696.46 81.12 699.3 80.11 701.36 78.08C703.42 76.04 704.72 72.97 704.72 68.06C704.72 63.15 703.49 59.86 701.5 57.79C699.51 55.72 696.74 54.86 693.06 54.86C686.96 54.86 683.7 61.07 683.7 67.91V67.9Z" fill="#54C0E2"/>
<path d="M666.311 88.47H656.651V85.02C654.761 88.47 647.581 89.59 643.851 89.59C641.191 89.59 638.921 89.12 637.031 88.19C635.141 87.26 633.581 86.03 632.371 84.5C631.161 82.97 630.271 81.22 629.701 79.25C629.131 77.27 628.851 75.24 628.851 73.15V47.72H639.021V70.26C639.021 71.45 639.111 72.69 639.271 73.99C639.441 75.29 639.811 76.46 640.371 77.51C640.941 78.56 641.711 79.42 642.701 80.1C643.691 80.78 645.001 81.12 646.641 81.12C648.281 81.12 649.621 80.8 650.831 80.15C652.051 79.5 656.131 77.37 656.131 72.5V47.73H666.301V88.47H666.311Z" fill="#54C0E2"/>
<path d="M578.63 67.8999C578.63 64.6799 579.19 61.7499 580.31 59.1299C581.43 56.4999 582.95 54.2599 584.86 52.3899C586.77 50.5299 589.04 49.0899 591.66 48.0699C594.28 47.0499 597.07 46.5399 600.02 46.5399C602.97 46.5399 605.75 47.0499 608.38 48.0699C611 49.0899 613.27 50.5299 615.18 52.3899C617.09 54.2499 618.61 56.4999 619.73 59.1299C620.85 61.7599 621.41 64.6799 621.41 67.8999C621.41 71.1199 620.85 74.0599 619.73 76.7099C618.61 79.3699 617.09 81.6399 615.18 83.5299C613.27 85.4199 611 86.9099 608.38 87.9799C605.76 89.0499 602.97 89.5899 600.02 89.5899C597.07 89.5899 594.29 89.0499 591.66 87.9799C589.04 86.9099 586.77 85.4199 584.86 83.5299C582.95 81.6399 581.43 79.3599 580.31 76.7099C579.19 74.0499 578.63 71.1199 578.63 67.8999ZM588.62 67.8999C588.62 69.4799 588.85 71.0599 589.32 72.6499C589.78 74.2299 590.48 75.6399 591.41 76.8899C592.34 78.1299 593.51 79.1499 594.93 79.9399C596.35 80.7299 598.04 81.1299 600.01 81.1299C601.98 81.1299 603.67 80.7399 605.09 79.9399C606.51 79.1499 607.68 78.1299 608.61 76.8899C609.54 75.6499 610.24 74.2299 610.7 72.6499C611.16 71.0699 611.4 69.4899 611.4 67.8999C611.4 66.3099 611.17 64.7499 610.7 63.1999C610.24 61.6499 609.54 60.2499 608.61 58.9999C607.68 57.7599 606.51 56.7499 605.09 55.9899C603.67 55.2299 601.98 54.8499 600.01 54.8499C598.04 54.8499 596.35 55.2299 594.93 55.9899C593.51 56.7499 592.34 57.7599 591.41 58.9999C590.48 60.2399 589.78 61.6399 589.32 63.1999C588.85 64.7599 588.62 66.3199 588.62 67.8999Z" fill="#54C0E2"/>
<path d="M567.18 74.21V24.33H557.01V77.76C557.01 85.01 563.39 88.46 567.25 88.46H572.27V78.29C569.87 78.29 567.25 77.22 567.17 74.2L567.18 74.21Z" fill="#54C0E2"/>
<path d="M543.431 58.9999C542.641 57.8699 541.451 56.9199 539.871 56.1599C538.291 55.3999 536.681 55.0199 535.041 55.0199C533.181 55.0199 531.541 55.3999 530.121 56.1599C528.711 56.9199 527.541 57.9299 526.601 59.1699C525.671 60.4099 524.981 61.8099 524.521 63.3699C524.071 64.9199 523.841 66.4899 523.841 68.0699C523.841 69.6499 524.081 71.2199 524.561 72.7699C525.041 74.3199 525.761 75.7199 526.721 76.9699C527.681 78.2099 528.881 79.2199 530.321 79.9799C531.761 80.7399 533.441 81.1199 535.361 81.1199C536.941 81.1199 538.521 80.8099 540.101 80.1899C541.681 79.5699 542.951 78.6599 543.911 77.4799L548.531 85.5099C547.171 86.5699 545.581 87.4399 543.781 88.1199C541.151 89.1099 538.311 89.5999 535.261 89.5999C532.211 89.5999 529.421 89.1199 526.741 88.1599C524.051 87.1999 521.711 85.7899 519.711 83.9199C517.701 82.0599 516.121 79.7999 514.961 77.1399C513.801 74.4799 513.221 71.4599 513.221 68.0699C513.221 64.6799 513.801 61.8299 514.961 59.1699C516.121 56.5099 517.691 54.2499 519.661 52.3899C521.641 50.5299 523.941 49.0899 526.571 48.0699C529.201 47.0499 532.011 46.5399 535.001 46.5399C537.991 46.5399 540.891 47.1099 543.691 48.2399C545.381 48.9199 546.861 49.7599 548.121 50.7499L543.391 58.9999H543.431Z" fill="#54C0E2"/>
<path d="M492.74 82.47C492.74 80.66 493.4 79.11 494.73 77.81C496.06 76.51 497.65 75.86 499.52 75.86C501.39 75.86 502.91 76.48 504.26 77.72C505.62 78.96 506.3 80.49 506.3 82.3C506.3 84.11 505.63 85.66 504.31 86.96C502.98 88.26 501.39 88.91 499.52 88.91C498.62 88.91 497.75 88.74 496.93 88.4C496.11 88.06 495.39 87.61 494.77 87.04C494.15 86.48 493.65 85.8 493.29 85.01C492.92 84.22 492.74 83.37 492.74 82.47Z" fill="#54C0E2"/>
<path d="M480.62 15.3201H466V88.4701H480.62V15.3201Z" fill="black"/>
<path d="M421.7 88.4701L407.67 41.4501L393.56 88.4701H379.84L358.45 15.3201H373.76L386.93 63.6901L400.85 18.3301H414.81L428.39 63.4801L441.26 15.3201H456.81L436.26 88.4701H421.7Z" fill="black"/>
<path d="M314.66 90.28C309.33 90.28 304.34 89.33 299.82 87.45C295.29 85.57 291.32 82.89 288.02 79.5C284.72 76.11 282.11 72.01 280.25 67.31C278.39 62.62 277.45 57.37 277.45 51.7C277.45 46.03 278.39 40.58 280.25 35.89C282.11 31.19 284.73 27.14 288.03 23.84C291.33 20.55 295.3 17.97 299.83 16.19C304.35 14.41 309.34 13.51 314.66 13.51C319.98 13.51 325.08 14.41 329.63 16.19C334.2 17.97 338.2 20.55 341.53 23.84C344.87 27.14 347.5 31.19 349.36 35.89C351.22 40.58 352.16 45.9 352.16 51.7C352.16 57.5 351.22 62.62 349.36 67.31C347.5 72 344.87 76.1 341.54 79.5C338.21 82.89 334.21 85.57 329.65 87.45C325.09 89.33 320.05 90.28 314.66 90.28ZM314.75 26.62C311.39 26.62 308.31 27.27 305.61 28.54C302.9 29.82 300.53 31.61 298.59 33.84C296.64 36.09 295.1 38.75 294.04 41.77C292.97 44.8 292.42 48.13 292.42 51.69C292.42 55.25 292.96 58.8 294.04 61.86C295.11 64.91 296.65 67.59 298.64 69.83C300.62 72.07 302.99 73.83 305.7 75.08C308.41 76.33 311.45 76.96 314.76 76.96C318.07 76.96 321.13 76.33 323.87 75.08C326.61 73.83 329 72.07 330.98 69.83C332.96 67.59 334.51 64.91 335.57 61.86C336.64 58.79 337.19 55.37 337.19 51.69C337.19 48.01 336.64 44.81 335.57 41.77C334.5 38.75 332.97 36.09 331.02 33.84C329.08 31.61 326.7 29.82 323.96 28.54C321.22 27.26 318.13 26.61 314.77 26.61L314.75 26.62Z" fill="black"/>
<path d="M250.99 88.4701L235.31 61.3101H226.79V88.4701H212.17V15.3201H237.88C241.29 15.3201 244.64 15.6801 247.85 16.4001C251.1 17.1301 254.03 18.3401 256.57 20.0101C259.14 21.7001 261.22 23.9401 262.77 26.6801C264.32 29.4301 265.11 34.5601 265.11 38.4701C265.11 45.6801 260.81 54.7601 250.19 59.3201L267.02 88.4801H250.99V88.4701ZM236.18 49.0001C237.94 49.0001 239.72 48.8701 241.47 48.6101C243.16 48.3601 244.73 47.9301 246.05 47.2001C248.81 45.6701 250.5 41.4201 250.5 38.4701C250.5 35.5201 249.04 32.0701 246.74 30.1901C245.07 28.8201 242.46 27.9301 237.29 27.9301H226.8V49.0001H236.18Z" fill="black"/>
<path d="M168.02 90.28C162.16 90.28 156.73 89.33 151.88 87.45C147.02 85.57 142.78 82.89 139.28 79.5C135.78 76.11 133.02 72 131.06 67.31C129.11 62.62 128.12 57.37 128.12 51.7C128.12 46.03 129.14 40.57 131.17 35.88C133.19 31.18 136.01 27.13 139.55 23.84C143.08 20.55 147.3 17.98 152.09 16.2C156.87 14.42 162.13 13.52 167.72 13.52C173.31 13.52 178.87 14.37 183.68 16.04C188.51 17.72 192.47 19.97 195.44 22.73L196.11 23.35L188.41 36.7C186.73 34 181.16 30.01 178.05 28.66C174.94 27.31 171.5 26.63 167.83 26.63C164.16 26.63 160.93 27.28 158.01 28.56C155.1 29.84 152.58 31.62 150.54 33.86C148.49 36.1 146.88 38.77 145.76 41.79C144.63 44.82 144.06 48.15 144.06 51.71C144.06 55.27 144.63 58.82 145.76 61.88C146.88 64.93 148.51 67.61 150.59 69.85C152.66 72.08 155.22 73.85 158.2 75.09C161.18 76.34 164.63 76.98 168.43 76.98C173.44 76.98 177.74 76.29 181.5 74.83V61.33H174.09L166.92 49.02H196.12V84.4C192.45 86.17 187.56 87.83 183.18 88.81C178.8 89.79 173.7 90.29 168.03 90.29L168.02 90.28Z" fill="black"/>
<path d="M34.9798 60.99L24.4998 79.15C24.1798 79.71 24.1798 80.4 24.4998 80.95L32.5698 94.93C32.8698 95.44 33.4798 95.79 34.0998 95.79H34.9798L45.0298 78.39L34.9798 60.99Z" fill="#54C0E2"/>
<path d="M88.0597 53.54L74.2297 77.5C73.9697 77.94 73.4997 78.4 72.6997 78.4H45.0197L34.9697 95.79H82.7797C83.3997 95.79 83.9197 95.48 84.2397 94.93L108.14 53.53H88.0597V53.54Z" fill="#1B62C9"/>
<path d="M108.58 52.8C108.91 52.24 108.93 51.61 108.61 51.05L100.53 37.06C100.21 36.5 99.6597 36.14 99.0097 36.14H50.3797C49.7297 36.14 49.1397 36.49 48.8097 37.03L41.1797 50.23L51.2297 67.65L58.6197 54.85C59.0897 54.05 59.9497 53.55 60.8697 53.55H108.15L108.58 52.81V52.8Z" fill="#54C0E2"/>
<path d="M44.17 25.4H93.8L84.28 8.91C83.96 8.35 83.41 8 82.76 8H34.13C33.48 8 32.89 8.32 32.56 8.88L8.24 50.99C7.92 51.55 7.92 52.23 8.24 52.79L17.78 69.31L42.6 26.28C42.92 25.72 43.52 25.39 44.17 25.39V25.4Z" fill="#54C0E2"/>
</svg>
