<svg xmlns="http://www.w3.org/2000/svg" xmlns:xlink="http://www.w3.org/1999/xlink" width="735.814" height="265.408" viewBox="0 0 735.814 265.408"><defs><linearGradient id="a" x1="-1.216" y1="-2.916" x2="6.191" y2="11.827" gradientUnits="objectBoundingBox"><stop offset="0" stop-color="#4ea0c4"/><stop offset="0.586" stop-color="#a8ebff"/><stop offset="1" stop-color="#cefbff"/></linearGradient><linearGradient id="g" x1="7.148" y1="17.369" x2="-2.771" y2="-7.8" gradientUnits="objectBoundingBox"><stop offset="0" stop-color="#254459"/><stop offset="0.635" stop-color="#4a737c"/><stop offset="1" stop-color="#7196a3"/></linearGradient></defs><g transform="translate(0.5)" opacity="0.4"><path d="M28.642,178.1H34.91l3.134,5.428-3.134,5.428H28.642l-3.134-5.428Z" transform="translate(626.489 -158.118)" stroke="rgba(0,0,0,0)" stroke-width="1" fill="url(#a)" style="mix-blend-mode:multiply;isolation:isolate"/><path d="M95.293,178.36h6.612l3.306,5.726-3.306,5.726H95.293l-3.306-5.726Z" transform="translate(435.772 -157.863)" stroke="rgba(0,0,0,0)" stroke-width="1" fill="url(#a)" style="mix-blend-mode:multiply;isolation:isolate"/><path d="M88.506,213.99H109.97L120.7,232.579,109.97,251.168H88.506L77.774,232.579Z" transform="translate(405.948 -110.408)" stroke="rgba(0,0,0,0)" stroke-width="1" fill="url(#a)" style="mix-blend-mode:multiply;isolation:isolate"/><path d="M13.476,252.779H54.968l20.746,35.933L54.968,324.645H13.476L-7.27,288.712Z" transform="translate(653.64 -78.956)" stroke="rgba(0,0,0,0)" stroke-width="1" fill="url(#a)" style="mix-blend-mode:multiply;isolation:isolate"/><path d="M333.646,291.924h6.169l3.085,5.343-3.085,5.343h-6.169l-3.085-5.343Z" transform="translate(-252.147 -53.493)" stroke="rgba(0,0,0,0)" stroke-width="1" fill="url(#a)" style="mix-blend-mode:multiply;isolation:isolate"/><path d="M85.338,191.278H98.707l6.684,11.578-6.684,11.578H85.338l-6.685-11.578Z" transform="translate(461.05 -146.467)" stroke="rgba(0,0,0,0)" stroke-width="1" fill="url(#a)" style="mix-blend-mode:multiply;isolation:isolate"/><path d="M184.35,291h13.577l6.789,11.758-6.789,11.758H184.35l-6.789-11.758Z" transform="translate(173.959 -54.401)" opacity="0.686" fill="url(#g)" style="mix-blend-mode:multiply;isolation:isolate"/><path d="M267.794,241.016h10.428l5.214,9.031-5.214,9.031H267.794l-5.214-9.031Z" transform="translate(-66.347 -100.399)" stroke="rgba(0,0,0,0)" stroke-width="1" fill="url(#a)" style="mix-blend-mode:multiply;isolation:isolate"/><path d="M263.381,262.258h6.091l3.046,5.276-3.046,5.275h-6.091l-3.046-5.275Z" transform="translate(-51.413 -80.594)" stroke="rgba(0,0,0,0)" stroke-width="1" fill="url(#a)" style="mix-blend-mode:multiply;isolation:isolate"/><path d="M163.343,193H170.4l3.526,6.108-3.526,6.108h-7.053l-3.526-6.108Z" transform="translate(238.206 -144.815)" stroke="rgba(0,0,0,0)" stroke-width="1" fill="url(#a)" style="mix-blend-mode:multiply;isolation:isolate"/><path d="M222.957,268.83h26.026L262,291.369l-13.013,22.539H222.957l-13.013-22.539Z" transform="translate(53.956 -59.629)" stroke="rgba(0,0,0,0)" stroke-width="1" fill="url(#a)" style="mix-blend-mode:multiply;isolation:isolate"/><path d="M203.586,221.875h19.1l9.549,16.538-9.549,16.538h-19.1l-9.548-16.538Z" transform="translate(115.409 -118.293)" stroke="rgba(0,0,0,0)" stroke-width="1" fill="url(#a)" style="mix-blend-mode:multiply;isolation:isolate"/><path d="M215.964,248.315h45.823L284.7,288l-22.912,39.684H215.964L193.052,288Z" transform="translate(66.107 -96.124)" stroke="rgba(0,0,0,0)" stroke-width="1" fill="url(#a)" style="mix-blend-mode:multiply;isolation:isolate"/><path d="M48.488,237.709h8.874l4.437,7.685-4.437,7.685H48.488l-4.437-7.685Z" transform="translate(566.066 -103.422)" stroke="rgba(0,0,0,0)" stroke-width="1" fill="url(#a)" style="mix-blend-mode:multiply;isolation:isolate"/><path d="M173.4,240.292h22.059l11.029,19.1-11.029,19.1H173.4L162.37,259.4Z" transform="translate(201.348 -101.393)" stroke="rgba(0,0,0,0)" stroke-width="1" fill="url(#a)" style="mix-blend-mode:multiply;isolation:isolate"/><path d="M136.058,224.159h13.833l6.917,11.98-6.917,11.98H136.058l-6.917-11.98Z" transform="translate(313.797 -116.073)" opacity="0.686" fill="url(#g)" style="mix-blend-mode:multiply;isolation:isolate"/><path d="M100.148,275.844h15.97l7.985,13.83L116.117,303.5h-15.97l-7.985-13.831Z" transform="translate(416.75 -69.212)" stroke="rgba(0,0,0,0)" stroke-width="1" fill="url(#a)" style="mix-blend-mode:multiply;isolation:isolate"/><path d="M18.266,168H68.14l24.937,43.191L68.14,254.378H18.266L-6.67,211.187Z" transform="translate(635.091 -167.995)" opacity="0.686" fill="url(#g)" style="mix-blend-mode:multiply;isolation:isolate"/><path d="M76.542,178.427h7.231l3.616,6.262-3.616,6.262H76.542l-3.616-6.262Z" transform="translate(489.82 -157.797)" stroke="rgba(0,0,0,0)" stroke-width="1" fill="url(#a)" style="mix-blend-mode:multiply;isolation:isolate"/><path d="M67.119,213.935h43.445l21.722,37.624-21.722,37.624H67.119L45.4,251.559Z" transform="translate(491.97 -126.162)" opacity="0.686" fill="url(#g)" style="mix-blend-mode:multiply;isolation:isolate"/><path d="M162.057,298.384h5.881l2.94,5.093-2.94,5.093h-5.881l-2.94-5.093Z" transform="translate(242.539 -47.178)" stroke="rgba(0,0,0,0)" stroke-width="1" fill="url(#a)" style="mix-blend-mode:multiply;isolation:isolate"/><path d="M137.714,252.926h8.164L149.961,260l-4.082,7.071h-8.164L133.632,260Z" transform="translate(311.947 -89.306)" stroke="rgba(0,0,0,0)" stroke-width="1" fill="url(#a)" style="mix-blend-mode:multiply;isolation:isolate"/><path d="M89.513,246.449h40.332l20.166,34.928-20.166,34.928H89.513L69.347,281.377Z" transform="translate(429.294 -93.262)" stroke="rgba(0,0,0,0)" stroke-width="1" fill="url(#a)" style="mix-blend-mode:multiply;isolation:isolate"/><path d="M198.9,279.691h6.664l3.332,5.771-3.332,5.771H198.9l-3.332-5.771Z" transform="translate(135.308 -65.452)" stroke="rgba(0,0,0,0)" stroke-width="1" fill="url(#a)" style="mix-blend-mode:multiply;isolation:isolate"/><path d="M7.3,249.64H19.2l5.948,10.3-5.948,10.3H7.3l-5.948-10.3Z" transform="translate(687.152 -92.459)" stroke="rgba(0,0,0,0)" stroke-width="1" fill="url(#a)" style="mix-blend-mode:multiply;isolation:isolate"/><path d="M179.706,262.177h24.521l12.261,21.236L204.228,304.65H179.706l-12.261-21.236Z" transform="translate(181.82 -81.33)" opacity="0.686" fill="url(#g)" style="mix-blend-mode:multiply;isolation:isolate"/><path d="M265.961,275.353h23.7l11.851,20.526-11.851,20.526h-23.7L254.11,295.879Z" transform="translate(-67.573 -69.692)" opacity="0.686" fill="url(#g)" style="mix-blend-mode:multiply;isolation:isolate"/><path d="M264.34,298.3h5.91l2.955,5.118-2.955,5.118h-5.91l-2.955-5.118Z" transform="translate(-54.104 -47.256)" opacity="0.686" fill="url(#g)" style="mix-blend-mode:multiply;isolation:isolate"/><path d="M299.313,256.718h9.66l4.83,8.366-4.83,8.366h-9.66l-4.83-8.366Z" transform="translate(-157.353 -85.839)" stroke="rgba(0,0,0,0)" stroke-width="1" fill="url(#a)" style="mix-blend-mode:multiply;isolation:isolate"/><path d="M39.572,217.185H55.727L63.8,231.176l-8.078,13.991H39.572l-8.078-13.991Z" transform="translate(588.891 -122.564)" stroke="rgba(0,0,0,0)" stroke-width="1" fill="url(#a)" style="mix-blend-mode:multiply;isolation:isolate"/><path d="M1.153,173.263H21.6L31.83,190.975,21.6,208.686H1.153L-9.073,190.975Z" transform="translate(701.089 -162.845)" stroke="rgba(0,0,0,0)" stroke-width="1" fill="url(#a)" style="mix-blend-mode:multiply;isolation:isolate"/><path d="M62.2,271.747H73.446l5.622,9.737-5.622,9.737H62.2l-5.621-9.737Z" transform="translate(509.807 -71.981)" opacity="0.686" fill="url(#g)" style="mix-blend-mode:multiply;isolation:isolate"/><g transform="translate(266.118 156.179)" style="mix-blend-mode:multiply;isolation:isolate"><path d="M231.1,249.766l-5.09,8.818,5.09,8.818h10.182l5.09-8.818-5.09-8.818H231.1m-.382-.661h10.946l5.474,9.478-5.474,9.48H230.721l-5.472-9.48,5.472-9.478Z" transform="translate(-225.249 -249.105)" stroke="rgba(0,0,0,0)" stroke-width="1" fill="url(#a)"/></g><g transform="translate(477.552 144.186)" style="mix-blend-mode:multiply;isolation:isolate"><path d="M118.349,243.749l-6.4,11.076,6.4,11.076H131.14l6.4-11.076-6.4-11.076H118.349m-.481-.833h13.752l6.874,11.909-6.874,11.909H117.869l-6.874-11.909,6.874-11.909Z" transform="translate(-110.995 -242.916)" opacity="0.686" fill="url(#g)" style="mix-blend-mode:multiply;isolation:isolate"/></g><g transform="translate(202.242 149.293)" style="mix-blend-mode:multiply;isolation:isolate"><path d="M244.377,250.025l-24.423,42.3,24.423,42.3h48.847l24.423-42.3-24.423-42.3H244.377m-1.833-3.176h52.514l26.256,45.478L295.058,337.8H242.544l-26.256-45.476,26.256-45.478Z" transform="translate(-216.288 -246.849)" stroke="rgba(0,0,0,0)" stroke-width="1" fill="url(#a)"/></g><g transform="translate(455.57 210.765)" style="mix-blend-mode:multiply;isolation:isolate"><path d="M126,279.235l-10.014,17.347L126,313.931h20.033l10.014-17.349-10.014-17.347H126m-.751-1.3h21.536l10.768,18.648-10.768,18.65H125.252l-10.768-18.65,10.768-18.648Z" transform="translate(-114.484 -277.934)" stroke="rgba(0,0,0,0)" stroke-width="1" fill="url(#a)"/></g><g transform="translate(617.266 47.516)" style="mix-blend-mode:multiply;isolation:isolate"><path d="M44.082,193.349l-5.2,9.01,5.2,9.01h10.4l5.2-9.01-5.2-9.01h-10.4m-.392-.676H54.876l5.593,9.686-5.593,9.686H43.691L38.1,202.359l5.593-9.686Z" transform="translate(-38.098 -192.673)" stroke="rgba(0,0,0,0)" stroke-width="1" fill="url(#a)"/></g><g transform="translate(477.498 189.48)" style="mix-blend-mode:multiply;isolation:isolate"><path d="M120.444,266.961l-4.491,7.778,4.491,7.78h8.982l4.491-7.78-4.491-7.778h-8.982m-.338-.585h9.656l4.829,8.363-4.829,8.363h-9.656l-4.827-8.363,4.827-8.363Z" transform="translate(-115.279 -266.376)" stroke="rgba(0,0,0,0)" stroke-width="1" fill="url(#a)"/></g><g transform="translate(495.865 25.571)" style="mix-blend-mode:multiply;isolation:isolate"><path d="M112.318,181.324l-3.067,5.316,3.067,5.314h6.138l3.067-5.314-3.067-5.316h-6.138m-.229-.4h6.6l3.3,5.713-3.3,5.713h-6.6l-3.3-5.713,3.3-5.713Z" transform="translate(-108.79 -180.926)" stroke="rgba(0,0,0,0)" stroke-width="1" fill="url(#a)"/></g><g transform="translate(571.881 164.567)" style="mix-blend-mode:multiply;isolation:isolate"><path d="M72.588,253.752l-2.812,4.873,2.812,4.873h5.626l2.814-4.873-2.814-4.873H72.588m-.212-.366h6.049l3.024,5.239-3.024,5.238H72.377l-3.024-5.238,3.024-5.239Z" transform="translate(-69.353 -253.386)" stroke="rgba(0,0,0,0)" stroke-width="1" fill="url(#a)"/></g><g transform="translate(241.59 237.515)" style="mix-blend-mode:multiply;isolation:isolate"><path d="M245.443,291.947l-3.742,6.48,3.742,6.48h7.483l3.741-6.48-3.741-6.48h-7.483m-.281-.486h8.045l4.022,6.967-4.022,6.967h-8.045l-4.022-6.967,4.022-6.967Z" transform="translate(-241.14 -291.461)" stroke="rgba(0,0,0,0)" stroke-width="1" fill="url(#a)"/></g><g transform="translate(132.813 178.768)" style="mix-blend-mode:multiply;isolation:isolate"><path d="M290.487,263.765l-15.464,26.786,15.464,26.784h30.929l15.464-26.784-15.464-26.786H290.487m-1.161-2.011h33.251l16.627,28.8-16.627,28.8H289.326l-16.625-28.8,16.625-28.8Z" transform="translate(-272.701 -261.754)" opacity="0.686" fill="url(#g)" style="mix-blend-mode:multiply;isolation:isolate"/></g><g transform="translate(620.244 93.818)" style="mix-blend-mode:multiply;isolation:isolate"><path d="M23.473,220.33-.377,261.637l23.849,41.309h47.7L95.02,261.637,71.171,220.33h-47.7m-1.79-3.1h51.28L98.6,261.637l-25.639,44.41H21.683l-25.641-44.41,25.641-44.41Z" transform="translate(3.958 -217.227)" stroke="rgba(0,0,0,0)" stroke-width="1" fill="url(#a)"/></g><g transform="translate(563.906 224.606)" style="mix-blend-mode:multiply;isolation:isolate"><path d="M76.863,285.289l-2.741,4.748,2.741,4.748h5.484l2.741-4.748-2.741-4.748H76.863m-.206-.356h5.9l2.947,5.1-2.947,5.1h-5.9l-2.947-5.1,2.947-5.1Z" transform="translate(-73.711 -284.933)" stroke="rgba(0,0,0,0)" stroke-width="1" fill="url(#a)"/></g><g transform="translate(656.671 81.794)" style="mix-blend-mode:multiply;isolation:isolate"><path d="M26.186,210.862l-3.221,5.579,3.221,5.579h6.441l3.221-5.579-3.221-5.579H26.186m-.243-.419h6.925l3.463,6-3.463,6H25.943l-3.463-6,3.463-6Z" transform="translate(-22.48 -210.443)" stroke="rgba(0,0,0,0)" stroke-width="1" fill="url(#a)"/></g><g transform="translate(300.297 136.503)" style="mix-blend-mode:multiply;isolation:isolate"><path d="M214.9,239.283l-3.4,5.893,3.4,5.893h6.8l3.4-5.893-3.4-5.893h-6.8m-.255-.443h7.315l3.659,6.336-3.659,6.336h-7.315l-3.658-6.336,3.658-6.336Z" transform="translate(-210.985 -238.84)" stroke="rgba(0,0,0,0)" stroke-width="1" fill="url(#a)"/></g><g transform="translate(394.127 216.792)" style="mix-blend-mode:multiply;isolation:isolate"><path d="M162.814,281.751l-5.911,10.24,5.911,10.24h11.824l5.911-10.24-5.911-10.24H162.814m-.443-.769h12.71l6.356,11.009L175.081,303h-12.71l-6.356-11.007,6.356-11.009Z" transform="translate(-156.015 -280.982)" stroke="rgba(0,0,0,0)" stroke-width="1" fill="url(#a)"/></g><g transform="translate(707.049 116.407)" style="mix-blend-mode:multiply;isolation:isolate"><path d="M-2.586,229.32l-6.439,11.151,6.439,11.151H10.29l6.439-11.151L10.29,229.32H-2.586m-.484-.837H10.774L17.7,240.471l-6.921,11.988H-3.071l-6.921-11.988,6.921-11.988Z" transform="translate(9.992 -228.483)" stroke="rgba(0,0,0,0)" stroke-width="1" fill="url(#a)"/></g><g transform="translate(685.907 243.869)" style="mix-blend-mode:multiply;isolation:isolate"><path d="M11.289,295.105l-3.33,5.768,3.33,5.769h6.66l3.33-5.769-3.33-5.768h-6.66m-.251-.431H18.2l3.581,6.2-3.581,6.2H11.037l-3.579-6.2,3.579-6.2Z" transform="translate(-7.458 -294.674)" stroke="rgba(0,0,0,0)" stroke-width="1" fill="url(#a)"/></g><g transform="translate(385.755 165.621)" style="mix-blend-mode:multiply;isolation:isolate"><path d="M166.182,216.606l-21.445,37.146L166.182,290.9h42.891l21.447-37.144-21.447-37.146H166.182m-1.61-2.788h46.111l23.056,39.935-23.056,39.933H164.572l-23.056-39.933,23.056-39.935Z" transform="translate(-141.516 -213.818)" stroke="rgba(0,0,0,0)" stroke-width="1" fill="url(#a)"/></g><g transform="translate(30.793 240.08)" style="mix-blend-mode:multiply;isolation:isolate"><path d="M355.342,293.46l-5.409,9.37,5.409,9.368h10.817l5.408-9.368-5.408-9.37H355.342m-.405-.7h11.63l5.814,10.072L366.566,312.9h-11.63L349.12,302.83l5.816-10.072Z" transform="translate(-349.12 -292.758)" stroke="rgba(0,0,0,0)" stroke-width="1" fill="url(#a)"/></g><g transform="translate(464.312 55.16)" style="mix-blend-mode:multiply;isolation:isolate"><path d="M117.025,193.639l-9.486,16.429,9.486,16.429h18.969l9.486-16.429-9.486-16.429H117.025m-.713-1.233h20.4l10.2,17.661-10.2,17.663h-20.4l-10.2-17.663,10.2-17.661Z" transform="translate(-106.116 -192.406)" opacity="0.686" fill="url(#g)" style="mix-blend-mode:multiply;isolation:isolate"/></g><g transform="translate(410.301 129.489)" style="mix-blend-mode:multiply;isolation:isolate"><path d="M157.262,235.6l-3.152,5.462,3.152,5.462h6.306l3.154-5.462-3.154-5.462h-6.306m-.235-.409h6.779l3.39,5.871-3.39,5.871h-6.779l-3.389-5.871,3.389-5.871Z" transform="translate(-153.637 -235.193)" stroke="rgba(0,0,0,0)" stroke-width="1" fill="url(#a)"/></g><g transform="translate(489.087 239.204)" style="mix-blend-mode:multiply;isolation:isolate"><path d="M111.723,293.213l-6.9,11.954,6.9,11.954h13.8l6.9-11.954-6.9-11.954h-13.8m-.518-.9h14.84l7.42,12.852-7.42,12.852H111.2l-7.42-12.852,7.42-12.852Z" transform="translate(-103.785 -292.315)" stroke="rgba(0,0,0,0)" stroke-width="1" fill="url(#a)"/></g><g transform="translate(328.952 167.011)" style="mix-blend-mode:multiply;isolation:isolate"><path d="M199.542,255.157l-3.656,6.336,3.656,6.334h7.317l3.657-6.334-3.657-6.336h-7.317m-.273-.475h7.863l3.933,6.811-3.933,6.811h-7.863l-3.933-6.811,3.933-6.811Z" transform="translate(-195.336 -254.682)" stroke="rgba(0,0,0,0)" stroke-width="1" fill="url(#a)"/></g><g transform="translate(108.463 199.923)" style="mix-blend-mode:multiply;isolation:isolate"><path d="M318.527,272.129l-3.006,5.207,3.006,5.207h6.012l3.006-5.207-3.006-5.207h-6.012m-.226-.389h6.463l3.231,5.6-3.231,5.6H318.3l-3.231-5.6,3.231-5.6Z" transform="translate(-315.07 -271.739)" stroke="rgba(0,0,0,0)" stroke-width="1" fill="url(#a)"/></g><g transform="translate(410.442 19.505)" style="mix-blend-mode:multiply;isolation:isolate"><ellipse cx="0.651" cy="0.651" rx="0.651" ry="0.651" transform="translate(0)" stroke="rgba(0,0,0,0)" stroke-width="1" fill="url(#a)"/></g><g transform="translate(466.724 20.001)" style="mix-blend-mode:multiply;isolation:isolate"><path d="M129.014,180a1.889,1.889,0,1,0,1.889-1.889A1.888,1.888,0,0,0,129.014,180Z" transform="translate(-129.014 -178.109)" stroke="rgba(0,0,0,0)" stroke-width="1" fill="url(#a)"/></g><g transform="translate(647.153 242.252)" style="mix-blend-mode:multiply;isolation:isolate"><ellipse cx="2.495" cy="2.495" rx="2.495" ry="2.495" transform="translate(0)" opacity="0.686" fill="url(#g)" style="mix-blend-mode:multiply;isolation:isolate"/></g><g transform="translate(60.116 205.202)" style="mix-blend-mode:multiply;isolation:isolate"><path d="M345.313,275.11a.733.733,0,1,0,.732-.732A.733.733,0,0,0,345.313,275.11Z" transform="translate(-345.313 -274.378)" stroke="rgba(0,0,0,0)" stroke-width="1" fill="url(#a)"/></g><g transform="translate(238.665 143.893)" style="mix-blend-mode:multiply;isolation:isolate"><path d="M246.557,246.9a4.262,4.262,0,1,0,4.262-4.26A4.262,4.262,0,0,0,246.557,246.9Z" transform="translate(-246.557 -242.644)" stroke="rgba(0,0,0,0)" stroke-width="1" fill="url(#a)"/></g><g transform="translate(352.616 137.757)" style="mix-blend-mode:multiply;isolation:isolate"><circle cx="1.053" cy="1.053" r="1.053" transform="translate(0)" stroke="rgba(0,0,0,0)" stroke-width="1" fill="url(#a)"/></g><g transform="translate(134.353 229.937)" style="mix-blend-mode:multiply;isolation:isolate"><path d="M307.894,288.242a.613.613,0,1,0,.613-.613A.614.614,0,0,0,307.894,288.242Z" transform="translate(-307.894 -287.629)" stroke="rgba(0,0,0,0)" stroke-width="1" fill="url(#a)"/></g><g transform="translate(708.413 215.997)" style="mix-blend-mode:multiply;isolation:isolate"><path d="M-.326,284.185a3.6,3.6,0,1,0,3.6-3.605A3.6,3.6,0,0,0-.326,284.185Z" transform="translate(0.326 -280.58)" stroke="rgba(0,0,0,0)" stroke-width="1" fill="url(#a)"/></g><g transform="translate(284.204 255.434)" style="mix-blend-mode:multiply;isolation:isolate"><path d="M225.864,301.6a1.079,1.079,0,1,0,1.08-1.08A1.079,1.079,0,0,0,225.864,301.6Z" transform="translate(-225.864 -300.522)" stroke="rgba(0,0,0,0)" stroke-width="1" fill="url(#a)"/></g><g transform="translate(131.753 256.254)" style="mix-blend-mode:multiply;isolation:isolate"><path d="M308.205,302.543a1.606,1.606,0,1,0,1.606-1.606A1.606,1.606,0,0,0,308.205,302.543Z" transform="translate(-308.205 -300.937)" stroke="rgba(0,0,0,0)" stroke-width="1" fill="url(#a)"/></g><g transform="translate(602.069 86.94)" style="mix-blend-mode:multiply;isolation:isolate"><path d="M56.516,213.638a.573.573,0,1,0,.572-.572A.573.573,0,0,0,56.516,213.638Z" transform="translate(-56.516 -213.066)" stroke="rgba(0,0,0,0)" stroke-width="1" fill="url(#a)"/></g><g transform="translate(652.152 168.393)" style="mix-blend-mode:multiply;isolation:isolate"><path d="M28.318,258.751a3.412,3.412,0,1,0,3.411-3.411A3.41,3.41,0,0,0,28.318,258.751Z" transform="translate(-28.318 -255.34)" stroke="rgba(0,0,0,0)" stroke-width="1" fill="url(#a)"/></g><g transform="translate(355.869 104.327)" style="mix-blend-mode:multiply;isolation:isolate"><ellipse cx="1.5" cy="1.5" rx="1.5" ry="1.5" transform="translate(0)" stroke="rgba(0,0,0,0)" stroke-width="1" fill="url(#a)"/></g><g transform="translate(593.832 246.662)" style="mix-blend-mode:multiply;isolation:isolate"><ellipse cx="4.473" cy="4.473" rx="4.473" ry="4.473" transform="translate(0)" opacity="0.686" fill="url(#g)" style="mix-blend-mode:multiply;isolation:isolate"/></g><g transform="translate(450.469 251.483)" style="mix-blend-mode:multiply;isolation:isolate"><path d="M138.618,299.4a.873.873,0,1,0,.872-.874A.872.872,0,0,0,138.618,299.4Z" transform="translate(-138.618 -298.524)" stroke="rgba(0,0,0,0)" stroke-width="1" fill="url(#a)"/></g><g transform="translate(724.131 247.215)" style="mix-blend-mode:multiply;isolation:isolate"><path d="M-6.045,297.766a1.4,1.4,0,0,0,1.4,1.4,1.4,1.4,0,0,0,1.4-1.4,1.4,1.4,0,0,0-1.4-1.4A1.4,1.4,0,0,0-6.045,297.766Z" transform="translate(6.045 -296.366)" stroke="rgba(0,0,0,0)" stroke-width="1" fill="url(#a)"/></g><g transform="translate(724.748 185.342)" style="mix-blend-mode:multiply;isolation:isolate"><path d="M-5.5,264.635a.556.556,0,0,0,.556.556.556.556,0,0,0,.556-.556.556.556,0,0,0-.556-.556A.556.556,0,0,0-5.5,264.635Z" transform="translate(5.503 -264.079)" stroke="rgba(0,0,0,0)" stroke-width="1" fill="url(#a)"/></g><g transform="translate(693.976 104.118)" style="mix-blend-mode:multiply;isolation:isolate"><ellipse cx="1.313" cy="1.313" rx="1.313" ry="1.313" transform="translate(0)" stroke="rgba(0,0,0,0)" stroke-width="1" fill="url(#a)"/></g><g transform="translate(164.208 141.054)" style="mix-blend-mode:multiply;isolation:isolate"><path d="M287.695,243.485a2.342,2.342,0,1,0,2.343-2.341A2.343,2.343,0,0,0,287.695,243.485Z" transform="translate(-287.695 -241.144)" stroke="rgba(0,0,0,0)" stroke-width="1" fill="url(#a)"/></g><g transform="translate(598.102 31.279)" style="mix-blend-mode:multiply;isolation:isolate"><path d="M56.658,186.229a2.416,2.416,0,1,0,2.415-2.417A2.414,2.414,0,0,0,56.658,186.229Z" transform="translate(-56.658 -183.812)" stroke="rgba(0,0,0,0)" stroke-width="1" fill="url(#a)"/></g><g transform="translate(415.024 177.069)" style="mix-blend-mode:multiply;isolation:isolate"><ellipse cx="0.618" cy="0.618" rx="0.618" ry="0.618" transform="translate(0)" stroke="rgba(0,0,0,0)" stroke-width="1" fill="url(#a)"/></g><g transform="translate(530.159 90.999)" style="mix-blend-mode:multiply;isolation:isolate"><path d="M96.845,215.9a.734.734,0,1,0,.734-.732A.733.733,0,0,0,96.845,215.9Z" transform="translate(-96.845 -215.172)" stroke="rgba(0,0,0,0)" stroke-width="1" fill="url(#a)"/></g><g transform="translate(542.693 250.983)" style="mix-blend-mode:multiply;isolation:isolate"><ellipse cx="2.88" cy="2.88" rx="2.88" ry="2.88" transform="translate(0)" stroke="rgba(0,0,0,0)" stroke-width="1" fill="url(#a)"/></g><g transform="translate(0 253.735)" style="mix-blend-mode:multiply;isolation:isolate"><ellipse cx="0.563" cy="0.563" rx="0.563" ry="0.563" transform="translate(0)" stroke="rgba(0,0,0,0)" stroke-width="1" fill="url(#a)"/></g><g transform="translate(440.621 36.044)" style="mix-blend-mode:multiply;isolation:isolate"><ellipse cx="3.436" cy="3.436" rx="3.436" ry="3.436" transform="translate(0)" stroke="rgba(0,0,0,0)" stroke-width="1" fill="url(#a)"/></g><g transform="translate(714.237 65.882)" style="mix-blend-mode:multiply;isolation:isolate"><path d="M-3.421,205.921A3.752,3.752,0,1,0,.33,202.17,3.752,3.752,0,0,0-3.421,205.921Z" transform="translate(3.421 -202.17)" stroke="rgba(0,0,0,0)" stroke-width="1" fill="url(#a)"/></g><g transform="translate(316.578 246.801)" style="mix-blend-mode:multiply;isolation:isolate"><ellipse cx="0.815" cy="0.815" rx="0.815" ry="0.815" transform="translate(0)" stroke="rgba(0,0,0,0)" stroke-width="1" fill="url(#a)"/></g><g transform="translate(167.577 241.344)" style="mix-blend-mode:multiply;isolation:isolate"><ellipse cx="0.582" cy="0.582" rx="0.582" ry="0.582" transform="translate(0)" stroke="rgba(0,0,0,0)" stroke-width="1" fill="url(#a)"/></g></g></svg>