<svg viewBox="0 0 48 48" fill="none" xmlns="http://www.w3.org/2000/svg">
<path d="M13.7721 27.9887L9.19933 35.9527C9.0597 36.1983 9.0597 36.5009 9.19933 36.7421L12.7206 42.873C12.8515 43.0967 13.1176 43.2502 13.3882 43.2502H13.7721L18.1573 35.6194L13.7721 27.9887Z" fill="#7AD340"/>
<path d="M36.9333 24.7215L30.8987 35.2291C30.7853 35.4221 30.5802 35.6238 30.2311 35.6238H18.1533L13.7681 43.2502H34.6294C34.8999 43.2502 35.1268 43.1142 35.2664 42.873L45.6949 24.7171H36.9333V24.7215Z" fill="#428DD1"/>
<path d="M45.8869 24.397C46.0309 24.1514 46.0397 23.8751 45.9 23.6295L42.3744 17.4943C42.2348 17.2487 41.9948 17.0908 41.7112 17.0908H20.4921C20.2085 17.0908 19.9511 17.2443 19.8071 17.4811L16.4778 23.2699L20.863 30.9095L24.0876 25.296C24.2926 24.9452 24.6679 24.7259 25.0693 24.7259H45.6993L45.8869 24.4014V24.397Z" fill="#7AD340"/>
<path d="M17.7823 12.3807H39.4377L35.2838 5.14908C35.1441 4.90349 34.9042 4.75 34.6205 4.75H13.4015C13.1179 4.75 12.8604 4.89034 12.7164 5.13592L2.10472 23.6032C1.96509 23.8488 1.96509 24.147 2.10472 24.3926L6.26737 31.6374L17.0973 12.7667C17.2369 12.5211 17.4987 12.3764 17.7823 12.3764V12.3807Z" fill="#7AD340"/>
</svg>
